<?xml version="1.0" standalone="no"?><!DOCTYPE svg PUBLIC "-//W3C//DTD SVG 1.1//EN" "http://www.w3.org/Graphics/SVG/1.1/DTD/svg11.dtd"><svg t="1614836156053" class="icon" viewBox="0 0 1024 1024" version="1.1" xmlns="http://www.w3.org/2000/svg" p-id="1856" width="16" height="16" xmlns:xlink="http://www.w3.org/1999/xlink"><defs><style type="text/css"></style></defs><path d="M932 484h-153.4c-6.6-63.8-35.6-122.6-82.6-167-50-47-115.4-73-184-73s-134 26-183.8 73c-47 44.4-76 103.2-82.6 167H92c-15.4 0-28 12.6-28 28s12.6 28 28 28h153.4c6.6 63.8 35.6 122.6 82.6 167 50 47 115.4 73 184 73s134-26 183.8-73c47-44.4 76-103.2 82.6-167H932c15.4 0 28-12.6 28-28s-12.6-28-28-28z m-270 178c-40 40-93.2 62-150 62-56.6 0-109.8-22-150-62-40-40-62-93.2-62-150s22-109.8 62-150c40-40 93.2-62 150-62 56.6 0 109.8 22 150 62 40 40 62 93.2 62 150s-22 109.8-62 150z" p-id="1857"></path></svg>